<?xml version="1.0" encoding="UTF-8"?>
<!DOCTYPE svg  PUBLIC '-//W3C//DTD SVG 20010904//EN'  'http://www.w3.org/TR/2001/REC-SVG-20010904/DTD/svg10.dtd'>
<svg width="1441pt" height="259pt" version="1.0" viewBox="0 0 1441 259" xmlns="http://www.w3.org/2000/svg">
<metadata>Created by potrace 1.16, written by Peter Selinger 2001-2019</metadata>
<g transform="translate(0 259) scale(.1 -.1)">
<path d="m1785 2148c-3-7-4-380-3-828l3-815h105 105v825 825l-103 3c-76 2-104-1-107-10z"/>
<path d="m9405 2102-40-7v-795-795h105 105l3 326 2 326 53-9c28-6 117-8 197-5 168 5 241 24 332 84 111 74 162 167 181 326 31 262-61 439-270 518l-88 33-270 2c-148 1-288-1-310-4zm575-204c51-22 98-65 123-112 18-35 22-57 22-146 0-97-2-110-30-165-35-71-96-117-175-134-57-12-185-14-279-5l-61 7v291 291l182-6c133-4 193-9 218-21z"/>
<path d="m825 2068c-2-7-20-67-40-133-21-66-48-154-60-195-13-41-38-122-55-180s-38-123-45-145-23-74-35-115c-30-102-44-149-79-260-39-127-90-293-108-355-8-27-21-68-29-90-7-22-15-51-16-65l-3-25 214-6 20 68c11 37 33 117 50 178 17 60 37 113 44 117 6 4 132 8 278 8 202 0 269-3 276-12 6-7 15-31 21-53 27-103 71-253 81-278l11-27h111 111l-5 33c-2 17-28 106-57 197-59 189-167 538-181 590-6 19-14 46-19 60s-18 59-30 100-32 107-45 145c-12 39-29 93-38 120-57 190-89 293-97 313-9 21-14 22-140 22-96 0-132-3-135-12zm152-270c6-24 28-101 48-173 21-71 49-170 63-220 13-49 30-110 37-135 24-82 55-200 55-205 0-3-101-5-225-5h-225l6 28c3 15 12 47 20 72 13 42 59 200 71 245 3 11 16 57 29 103 13 45 35 121 49 170 39 136 48 162 55 162 4 0 11-19 17-42z"/>
<path d="m2405 1978c-2-7-9-56-15-108-7-52-15-115-19-140l-6-45-80-3c-48-2-82-8-87-15-11-17-10-111 2-141 9-25 13-26 90-26h80v-376c0-319 2-385 16-432 34-117 96-175 220-208 105-27 311-11 335 27 13 21 11 133-4 152-10 15-19 16-66 7-80-15-178-12-216 6-64 30-65 40-65 453v370l153 3 152 3 3 88 3 87h-156-155v155 155h-90c-64 0-92-4-95-12z"/>
<path d="m7471 1908c-7-46-15-114-19-153l-7-70-170-10v-85-85l83-3 82-3v-322c0-321 9-471 32-524 19-45 68-103 107-127 84-53 254-72 381-42l55 12 3 86c3 98 1 101-69 87-128-24-240-3-266 52-9 18-13 132-15 402l-3 377h152c176 0 167-7 161 110l-3 65-155 3-155 2 3 132c4 188 10 178-97 178h-88l-12-82z"/>
<path d="m12582 1928c-6-35-14-94-17-133-11-122-5-115-101-115h-85l3-87 3-88 83-3 82-3v-345c0-424 9-492 72-573 54-70 165-111 301-111 90 0 187 17 199 34 14 19 9 163-5 169-7 2-39 0-72-5-93-15-199-7-225 17-48 43-50 61-50 449v365l153 3 152 3 3 88 3 87h-156-155v155 155h-89-89l-10-62z"/>
<path d="m3405 1689c-138-48-211-141-240-304-21-121-21-492 0-604 34-176 108-254 283-296 58-14 97-16 185-12 147 8 297 32 308 49 5 7 9 51 9 97v84l-47-7c-224-29-306-35-355-26-133 26-169 75-176 242l-5 108 309 2 309 3 3 139c1 77-2 170-7 207-19 141-97 251-216 306-53 24-74 27-180 30-102 3-129 0-180-18zm258-180c74-38 107-112 107-241v-78h-187c-104 0-194 4-202 9-24 15-10 178 20 232 37 68 77 89 166 89 41 0 84-5 96-11z"/>
<path d="m4695 1692c-64-27-110-59-153-107-22-24-42-41-46-38-3 4-6 35-6 70v63h-100-100l2-587 3-588 101-3c98-3 102-2 108 20 3 13 6 197 6 409v385l23 32c64 86 139 122 256 122h71v120 120l-62-1c-35 0-81-8-103-17z"/>
<path d="m5503 1685c-29-13-81-51-115-84-34-34-63-61-65-61s-3 32-3 70v70h-99c-81 0-100-3-105-16-8-20-8-1128 0-1148 5-13 25-16 110-16h104v405c0 456-5 421 81 513 110 115 248 121 301 14 23-46 23-53 28-487l5-440h105 105l3 420c3 447-1 517-43 610-32 72-67 110-137 144-53 27-72 31-142 31-65 0-92-5-133-25z"/>
<path d="m6485 1700c-38-5-86-13-105-17l-35-9v-89c0-104-20-95 160-75 60 6 144 10 186 8 127-5 156-43 166-211l6-88-29 12c-17 7-92 12-184 13-140 1-160-1-202-21-64-30-134-96-166-158-26-48-27-56-27-205 0-150 1-157 28-212 76-155 244-218 392-148 59 28 174 129 176 154 0 6 4 2 9-9s9-48 9-82l1-63h101 100l-3 488c-3 460-4 489-23 527-37 76-83 123-153 157-64 31-72 32-202 34-74 1-166-2-205-6zm350-640c24-9 25-14 25-90 0-75-3-85-33-133-111-172-263-219-333-103-15 25-19 51-19 132 0 95 2 103 28 137 48 64 94 78 220 71 48-3 99-9 112-14z"/>
<path d="m8482 1691c-111-41-173-101-219-212l-27-64v-325l-1-325 28-72c58-148 195-223 405-223 80 0 263 22 322 39 23 7 25 13 32 96 5 49 6 91 3 93-2 3-64-3-137-13-220-30-321-22-376 29-44 40-55 75-60 193l-5 113 309 2 309 3 3 139c6 289-56 434-218 509-59 28-76 31-190 34-105 3-133 0-178-16zm279-195c57-39 82-103 83-211l1-90h-195-195v90c0 110 7 135 47 181 41 47 58 53 148 53 64 1 81-3 111-23z"/>
<path d="m10765 1700c-38-5-86-13-105-17l-35-9-6-186 33 5c89 16 250 29 318 25 129-5 155-41 163-224l3-72-26 10c-14 6-95 11-181 12-152 1-156 0-212-28-77-39-149-118-171-190-14-45-17-82-14-189 3-120 6-137 31-189 35-71 109-140 176-162 121-39 231-5 338 107l62 64 6-38c4-21 5-55 3-76l-3-38h100 100v480 480l-33 67c-37 75-73 110-152 146-49 22-71 25-190 28-74 1-166-2-205-6zm341-636c21-5 23-12 26-95 3-84 1-92-25-132-16-23-48-61-70-85-103-108-217-110-267-7-19 40-22 58-18 136 3 69 9 95 24 116 28 37 65 63 105 74 34 8 181 4 225-7z"/>
<path d="m12105 1693c-54-22-130-78-161-119-15-19-30-31-35-28s-9 34-9 70v64h-100-100l2-587 3-588 99-3c73-2 102 1 108 10 4 7 8 192 8 411v398l48 51c63 68 116 92 222 98l85 5v115 115l-65 2c-42 2-79-3-105-14z"/>
<path d="m13530 1701c-98-21-178-78-215-150-31-62-47-177-34-248 23-121 95-193 256-256 54-21 107-42 118-47 159-67 167-76 167-184 0-40-5-83-11-95-33-62-205-74-430-30-29 6-57 7-62 2-10-10-15-170-6-180 15-15 157-35 279-40 181-7 274 17 359 94 69 63 83 100 87 242 5 143-5 178-72 250-52 55-90 78-201 125-49 20-99 41-110 45-108 46-135 64-151 107-28 72-2 143 61 170 40 16 205 19 305 4 35-5 66-7 68-5s7 42 9 89l6 85-29 12c-34 13-343 22-394 10z"/>
</g>
</svg>
