<?xml version="1.0" standalone="no"?>
<!DOCTYPE svg PUBLIC "-//W3C//DTD SVG 20010904//EN"
 "http://www.w3.org/TR/2001/REC-SVG-20010904/DTD/svg10.dtd">
<svg version="1.0" xmlns="http://www.w3.org/2000/svg"
 width="266.000000pt" height="266.000000pt" viewBox="0 0 266.000000 266.000000"
 preserveAspectRatio="xMidYMid meet">
<metadata>
Created by potrace 1.16, written by Peter Selinger 2001-2019
</metadata>
<g transform="translate(0.000000,266.000000) scale(0.100000,-0.100000)"
fill="#000000" stroke="none">
<path d="M877 2138 c-10 -18 -74 -172 -143 -343 -70 -170 -174 -425 -231 -565
-57 -140 -123 -300 -145 -354 -43 -108 -43 -123 5 -140 18 -7 30 -6 41 3 8 7
42 82 76 167 34 85 65 156 69 158 3 2 134 -9 290 -23 l285 -26 36 -165 c19
-91 39 -171 43 -177 10 -16 59 -17 75 -1 18 18 16 33 -48 333 -33 154 -88 408
-121 565 -94 443 -118 553 -129 578 -8 17 -18 22 -48 22 -34 0 -41 -4 -55 -32z
m138 -596 c48 -232 86 -424 84 -426 -6 -4 -508 39 -513 45 -2 2 71 187 162
411 92 224 169 404 173 400 3 -4 45 -197 94 -430z"/>
<path d="M1643 2083 c-19 -17 -24 -54 -62 -503 -23 -267 -51 -581 -61 -698
-14 -151 -17 -219 -10 -233 13 -22 62 -26 79 -5 6 7 23 141 37 297 14 156 26
285 28 286 1 1 71 -5 156 -12 197 -19 263 -18 324 0 180 55 266 197 268 443 1
160 -38 251 -140 329 -64 48 -148 70 -344 87 -95 9 -191 18 -214 21 -31 4 -46
1 -61 -12z m291 -108 c107 -11 174 -22 203 -35 112 -49 155 -116 161 -250 8
-165 -35 -289 -121 -347 -76 -51 -132 -58 -335 -40 -96 9 -176 18 -178 20 -5
4 42 572 52 635 6 39 -3 38 218 17z"/>
</g>
</svg>
